<svg version="1.2" xmlns="http://www.w3.org/2000/svg" viewBox="0 0 769 1000" width="769" height="1000">
	<title>New Project</title>
	<style>
		.s0 { opacity: 1;fill: #ffffff } 
		.s1 { opacity: 1;fill: #010101 } 
		.s2 { opacity: 1;fill: #7f7f7f } 
	</style>
	<g id="Layer 2 copy">
		<path id="Path 0" class="s0" d="m417.3 0.1c0.9 0 1.7 0.1 1.7 0.4 0 0.3 0.2 1.2 0.5 2 0.4 1.3-1.3 1.5-25 1.3l10.5-1.8c5.8-1 11.3-1.8 12.2-1.9zm92.4 30.9c0.2 0 4.9 2.5 10.4 5.5 5.5 3 10 5.7 10 6 0 0.3-3.7 1.7-8.3 3.1-4.5 1.4-8.3 2.4-8.5 2.2-0.1-0.2-1-4-2.1-8.5-1-4.6-1.7-8.3-1.5-8.3zm36.5 263.2c0.4 0.7 7.1 24.6 15 53.1 7.9 28.4 14.5 51.4 14.6 51 0.2-0.5 3.9-19.2 8.3-41.8 4.4-22.6 8.3-41.2 8.5-41.5 0.3-0.3 0.5 1.8 0.5 4.5 0 2.8 0.5 23.4 2.3 87l19.2 25c10.5 13.8 19.4 25.4 19.7 26 0.3 0.6-0.2 10.2-2.7 41.8l-22 7.8c-12.1 4.3-41.8 14.7-110 38.6l14 1.8c7.7 1 14.5 2.1 15 2.5 0.5 0.4 1.9 4.8 2.9 9.6 1 4.9 2.2 9.5 2.5 10.2 0.4 0.8 5.9-5.5 14.6-16.8 7.7-9.9 14.7-18.3 15.5-18.6 0.8-0.3 16.8-6.5 35.5-13.9 18.7-7.3 34.6-13.5 35.3-13.7 0.8-0.2 5.5 9.4 13 26.5 6.4 14.7 12 26.4 12.3 26 0.3-0.4 6.6-18.6 13.9-40.3 7.3-21.7 13.6-40.1 13.9-40.8 0.3-0.8-2.3 0.2-5.9 2.2-3.6 2-6.8 3.6-7.3 3.6-0.4 0-1.6-1.8-2.7-4-1.1-2.2-2-4.1-2-4.2 0-0.2 1.6-1 3.7-2 2.1-0.9 6.9-2.8 10.8-4.3 3.9-1.5 7.6-3 8.4-3.4 1.2-0.5 1.1 0-0.2 2.7-0.9 1.7-1.6 3.4-1.5 3.7 0.2 0.3 4.9-4.1 10.4-9.7 5.6-5.7 11.4-11.5 15.9-15.7l32.8 9.4 18.5 40-5.1 66-33.9 90-41.9 28c-38.5 25.7-42 28.3-42.8 31.5-0.6 1.9-5.8 24.2-11.6 49.5-5.9 25.3-11 46.5-11.3 47-0.3 0.5-4.9 6.9-10.1 14-5.2 7.1-11.2 15.5-13.5 18.5-2.2 3-5.8 7.5-8 10-2.2 2.5-15.5 16.8-55.1 59.2l-11 5.3c-6 3-24.3 12.3-40.5 20.8-16.2 8.4-38.5 20-49.5 25.7-11 5.7-20.2 10.6-20.5 10.9-0.3 0.4-2.8 1.8-5.5 3.3-4.8 2.6-5.3 2.7-13.5 1.8-4.7-0.5-21.8-2.3-38-3.9-16.2-1.7-43-4.4-59.5-6.1-16.5-1.7-30.3-3.4-30.6-3.8-0.4-0.4-3.6-9.8-7-20.9-3.5-11.1-6-20.6-5.5-21 0.4-0.4 26.5-3.8 58-7.6 31.4-3.7 58-7.2 59.1-7.8 1.1-0.6 6.7-5.4 23-20.6l-44.5-8.3-5.5-11c-3-6-5.4-11.2-5.3-11.4 0.2-0.3 12.4-0.5 27.3-0.6 14.9-0.1 40.6-0.4 87.5-1.5l-18.3-18.3c-10-10-18.5-18.2-19-18.2-0.4 0-3.8 3.7-14.5 16.5l-36.9-3.7c-20.2-2.1-36.9-3.9-37.1-4-0.1-0.2 9.3-12.7 20.9-27.8 11.7-15.1 26.3-34.1 32.6-42.2 6.2-8.2 11.2-15 11-15.2-0.1-0.3-13.7 4-60.2 19.3l-47.5-32.4 8.2-15.5c4.4-8.5 8.4-16 8.8-16.5 0.4-0.5-1-22.4-3-48.5-2.1-26.1-4.1-50.1-5-59l7-2.7c5.4-2.1 6.9-3.2 6.5-4.3-0.4-0.8-3.8-10.5-14.7-41.5l-12.4-16.2c-6.8-9-13.2-16.6-14.2-17-0.9-0.4-17.2-4.8-70.7-18.9l-16.4-20c-9-10.9-18.5-23.3-26.1-34.9l6.2-5.5c3.5-3 7.8-6.9 13.3-11.7l-10.1-11.4c-5.6-6.3-14.5-16.2-19.8-22.1-5.3-6-9.6-11.1-9.6-11.5 0-0.5 1-5.1 2.1-10.3 1.2-5.2 2.4-9.8 2.8-10.2 0.3-0.4 7.8-0.3 16.6 0.2 8.8 0.5 38.9 2.1 118 6.3l25.5-7.2c14-4 35.9-10.2 71.5-20.2l17 3.6c9.4 2 25.3 5.4 35.5 7.6 10.2 2.1 19.3 3.9 20.2 3.9 1 0 6-2 11-4.4 5.1-2.4 16.5-7.8 25.3-12 8.8-4.2 16.1-7.4 16.2-7.1 0.2 0.3-2.8 3.8-6.6 7.8-3.9 3.9-6.7 7.3-6.3 7.5 0.4 0.2 4.9-0.9 19.4-5.3l9.4-15c5.2-8.2 9.4-14.6 9.4-14 0 0.6-1.2 7.5-2.6 15.5-1.4 8-2.4 14.9-2.2 15.3 0.2 0.4 7-8.3 15.3-19.3 9.5-12.9 15.2-19.7 15.6-18.8z"/>
		<path id="Path 1" class="s1" d="m389.5 8.5l29.5 6.6c16.2 3.6 38.9 8.7 50.5 11.3 11.6 2.6 21.3 5.1 21.6 5.4 0.4 0.4 6.2 10.6 12.9 22.7 6.7 12.1 12.5 22.3 12.8 22.7 0.4 0.5 3.5-3.3 6.9-8.2 3.5-5 6.5-9 6.8-9 0.3 0 0.2 5.5-0.7 24.5l6.6-9.3c3.6-5 7.3-9.2 8.1-9.2 0.8 0 9.7 2 38 9.1l20 19.9h-13.8c-7.5 0-13.6 0.4-13.5 0.8 0.2 0.4 1.2 3.1 2.3 6 1.1 2.9 2.3 5.2 2.7 5.2 0.5 0 2.3-2.2 7.3-9.9l15.5 8.5c8.5 4.7 15.8 8.9 16.2 9.2 0.3 0.4 2.7 10.6 5.3 22.7 2.6 12.1 4.8 22.1 4.8 22.3 0.1 0.1 5.4-3.4 11.7-7.8 6.8-4.7 11.9-7.7 12.5-7.2 0.5 0.5 10.1 7.9 21.3 16.5 11.1 8.7 20.7 15.7 21.2 15.7 0.5 0 1.2 0.6 1.4 1.3 0.2 0.6-5 9.4-23.9 37.6l-18.4-23.2c-10.1-12.8-18.6-23.3-19-23.5-0.3-0.1-2.1 9.6-7.3 43.3l9.2 9c5 4.9 9.1 9.2 9 9.5 0 0.3-6.6 15.2-14.8 33.2-8.1 18-15 32.4-15.3 32-0.3-0.4-1.8-12.2-3.3-26.2-1.5-14-3-27.1-3.3-29-0.5-3.4-0.3-3.6 6.6-8.3 3.9-2.6 7-4.9 6.8-5.1-0.1-0.3-5.8 1.5-12.7 4-6.9 2.4-12.7 4.2-13 3.9-0.3-0.2 4.6-6.2 10.9-13.2 6.3-7 12.3-13.7 13.3-14.8 1.8-1.9 1.7-2.6-1.9-24.8-2.6-15.8-4-21.9-4.5-20-0.3 1.5-2.1 13.5-7.3 50.2l-4 1.3c-2.2 0.7-9.9 3.4-30 10.6l-1.7 11.9c-1 6.5-2 12-2.3 12.3-0.3 0.3-0.5-2.5-0.5-13l-11.3 3.9c-6.1 2.2-11.3 3.9-11.5 3.8-0.1-0.1 3.3-3.2 7.5-6.8 4.3-3.7 8.4-7.4 9-8.3 1.2-1.4 0.2-1.9-8.7-4.6-5.5-1.7-10-3.3-10-3.8 0-0.4 2.1-5 4.5-10.2 2.5-5.2 4.4-9.6 4.3-9.7-0.2-0.2-7.2-0.9-30.9-2.8l-5.1-17-6.2 14.2c-3.3 7.9-6.2 14.2-6.3 14-0.1-0.1-0.9-3.6-1.8-7.7-0.9-4.1-1.7-7.6-1.8-7.8-0.1-0.1-5.5 2.2-12 5.3-8.6 4-11.7 5.1-11.7 4 0-0.8 0.9-4.8 2-8.8 1.1-3.9 2-7.6 2-8.2 0-0.6-5.2-2.9-11.7-5.3-11.1-4-11.9-4.1-13.1-2.5-0.7 1-5.9 9.1-21.7 34.3l-0.7-6.7c-0.3-3.8-0.9-11.6-1.8-28.3l-3.3 0.5c-1.7 0.2-5.7 0.7-8.7 1-3.2 0.4-5.1 0.3-4.5-0.2 0.6-0.5 6.7-3.4 13.7-6.4 7.1-3 12.2-5.7 11.5-6.1-0.6-0.3-5.5-2.1-10.7-3.9-5.2-1.7-9.9-3.6-10.5-4.1-0.6-0.5 1.6-3.4 6-7.8 3.9-3.8 6.8-7.1 6.5-7.4-0.3-0.2-7.9-1.3-17-2.5-9.1-1.1-16.9-2.1-17.5-2.2-0.6 0 2.5-1.7 14.5-7.4l-10.6-6c-5.8-3.3-11.1-6.3-11.7-6.8-0.8-0.5 0.5-2.3 8.8-9.8l-9.5 0.7c-5.2 0.4-12.6 0.9-23.5 1.9l-6.8 13c-3.7 7.2-6.6 13.1-6.5 13.2 0.2 0.1 3.7-0.7 7.8-1.8 4.1-1.1 7.9-1.8 8.3-1.7 0.4 0.2-4.1 4.8-20.8 20.2l-0.5-3.3c-0.5-3.1-1.2-1.9-10 15-5.2 10-9.6 18.6-9.8 19.1-0.1 0.4 0.6 0.6 1.5 0.4 1-0.3 5.7-1.6 19.3-5.6v-7.7c0-4.3-0.2-9.5-0.5-11.5-0.4-3.1-0.8-3.7-2.3-3.1-1.5 0.6-1.6 0.5-0.2-1.1 0.8-0.9 1.8-1.3 2.2-0.9 0.5 0.4 7.4-0.5 15.5-2 8.2-1.5 14.9-2.5 15-2.2 0.2 0.3-4.5 6.5-10.4 13.8-5.9 7.2-12.9 15.8-15.5 19-2.6 3.1-4.5 5.7-4.1 5.7 0.5 0 6.5-3 13.5-6.5 7.1-3.6 13-6.4 13.3-6.2 0.2 0.1-9 8.5-20.5 18.7-11.5 10.2-20.7 18.7-20.5 19 0.2 0.3 7.5-4.7 16.2-11.1 8.7-6.3 19.4-14.1 23.8-17.2 4.4-3.1 8.1-5.6 8.2-5.4 0.2 0.1 3 11.5 6.3 25.2 3.3 13.8 5.9 25.6 5.8 26.3-0.2 0.7-8.2 5.7-17.8 11.1-9.6 5.4-17.6 9.6-17.8 9.2-0.1-0.3 0.9-7.6 2.3-16.1 1.4-8.5 2.4-15.6 2.3-15.8-0.2-0.1-4.4 7-18.3 31.9l-5.5 1.6c-3 0.9-6.1 1.7-6.8 1.9-0.9 0.3-1.2-2-1.2-9.1 0-5.2-0.3-9.5-0.8-9.5-0.4 0.1-9.7 8.8-20.7 19.5-11 10.6-20.1 19.3-20.2 19.2-0.1-0.1 1.8-9.4 4.3-20.7 2.4-11.3 4.4-21.2 4.4-22-0.1-0.8-4.6 9.1-10.1 22-5.5 12.9-10.7 24.1-11.7 24.8-1 0.8-4.9 1.2-10.2 1.2-4.7 0-9.2 0.4-10 0.9-1.1 0.6-0.2 1.2 3.2 2 2.7 0.6 5 1.4 5.3 1.9 0.2 0.4-3.9 8.8-9.1 18.7-6.9 12.9-10.3 20.6-12 27-1.4 4.9-2.6 9.1-2.7 9.2-0.1 0-22.7-3.9-100.2-17.5l-14.5 5.8c-8 3.2-19.5 7.9-25.5 10.3-8 3.2-11.3 5.1-12.2 6.8-0.6 1.3-9.3 22-19.3 45.9-10 23.9-18.4 43.8-18.8 44.2-0.4 0.4-3.3-8.6-6.4-20-3.1-11.4-13.2-47.9-22.3-81.2-9.2-33.3-16.7-61.4-16.7-62.5 0-1.1 9.5-23.6 21.1-50 11.6-26.4 21.1-48.7 21.1-49.5 0-0.8 1.4-4 3.2-7 1.7-3 7.6-10.7 13-17 5.5-6.3 12-13.2 14.6-15.3 2.6-2.2 6.6-5.6 8.9-7.8 2.4-2.1 4.5-3.9 4.8-3.9 0.3 0 8-4.8 17.2-10.6 9.3-5.9 38.4-24.1 64.8-40.7 26.4-16.5 48.4-30.6 49-31.3 0.6-0.7 1.4-1.3 2-1.3 0.6 0 2.1-0.9 3.5-2 1.4-1.1 6.3-3.3 11-4.9 4.7-1.7 13.2-5.5 29.5-14l106-1.4 7-3.7zm270.8 333.1l8.4 17 1.2-5.3c0.6-2.9 1.1-6.1 1.1-7.2 0-1.1 0.5-2.3 1-2.5 0.5-0.3 4.6 3.8 9.1 9.2 4.5 5.4 8.4 9.9 8.8 10.1 0.3 0.1 3-1.8 5.8-4.3 2.9-2.5 5.4-4.4 5.4-4.3 0.1 0.1 2.5 22.1 5.4 48.8 2.9 26.6 5.1 48.7 5 49-0.1 0.2-9.5 5.6-41.3 23.5l-3.1 12.5c-1.7 6.8-2.9 12.6-2.6 12.7 0.3 0.1 2.3-3 4.5-7 2.2-4 4-6.8 4-6.2 0 0.5-3.7 13.4-8.2 28.6-4.6 15.2-8.4 27.6-8.5 27.5-0.2-0.1-2.7-26.5-11.2-117.1l-9.8-10c-5.4-5.5-12-12.3-19.4-20l4.1-28.5 9-11.5c5-6.4 9.2-11.5 9.5-11.5 0.3 0 2.5 2.9 5 6.5 2.5 3.5 4.8 6.4 5.2 6.4 0.5 0 3.2-3.7 6.2-8.2zm-618.6 151.9c4.3 1.8 10.4 4.5 19.3 8.6l-1.5 4.7c-0.8 2.6-4.3 14.1-7.7 25.5-3.5 11.4-6.4 20.6-6.5 20.5-0.1-0.1-2.7-13.8-5.8-30.5-3-16.6-5.5-30.6-5.5-31.2-0.1-0.5 3.4 0.6 7.7 2.4zm53.8 164.6c0.3 0 11.6 5 25.3 11.1 13.6 6.1 29.8 13.4 36 16.2 6.2 2.9 11.1 5.2 11 5.3-0.2 0.1-6.8 4.1-14.8 8.9-8 4.8-14.9 9.2-15.5 9.7-0.5 0.5-1.5 7.7-3.3 31.3l23.8 98.5 28 52c15.4 28.6 27.9 52.2 27.8 52.5-0.2 0.2-8-8.7-17.4-19.8-9.4-11.1-28.1-33.3-41.5-49.2-13.3-16-28.5-34-42.8-51l-20.4-55 1.7-50c0.9-27.5 1.6-52.4 1.6-55.3 0-2.9 0.2-5.2 0.5-5.2zm168.1 323.2c2.1 0.3 24.9 3.2 97.4 12.3l-6.5 6.5-12-1c-6.6-0.6-20.8-1.7-31.5-2.6-10.7-0.8-22.9-1.7-27-2-7.3-0.6-7.7-0.8-15.5-6.6-4.4-3.3-8.2-6.2-8.4-6.6-0.3-0.3 1.3-0.3 3.5 0z"/>
		<path id="Path 2" fill-rule="evenodd" class="s2" d="m419.5 4l35 11.6c19.3 6.3 38.6 12.2 43 13 4.4 0.8 8.9 1.9 10 2.3 1.5 0.6 2.3 2.5 3.3 7.7 0.8 3.8 1.7 7.5 2 8.2 0.6 1.1 2.4 0.8 9.2-1.4 7.5-2.4 9-2.6 12.5-1.6 3.2 0.9 5.6 2.9 11.8 10.2 7.2 8.4 8 9 11.4 9 2.1 0 9.4 1.2 28.8 5.5l60.2 45 24.7 31.5c13.5 17.3 24.4 31.6 24.1 31.8-0.3 0.1-9.6-6.8-20.8-15.5-11.1-8.6-20.7-16-21.2-16.5-0.6-0.5-5.7 2.5-12.5 7.2-6.3 4.4-11.6 7.9-11.7 7.8 0-0.2-2.2-10.2-4.8-22.3-2.6-12.1-5-22.3-5.3-22.7-0.4-0.3-7.7-4.5-31.7-17.7l-3.3 4.9c-1.7 2.8-3.5 5-4 5-0.4 0-1.6-2.3-2.7-5.2-1.1-2.9-2.1-5.6-2.3-6-0.1-0.4 6-0.8 27.3-0.8l-20-19.9-18.3-4.6c-10-2.5-18.9-4.5-19.7-4.5-0.8 0-4.5 4.2-14.7 18.5l0.6-12.3c0.3-6.7 0.4-12.2 0.1-12.2-0.3 0-3.3 4-6.8 9-3.4 4.9-6.5 8.7-6.9 8.2-0.3-0.4-6.1-10.6-12.8-22.7-6.7-12.1-12.5-22.3-12.9-22.7-0.3-0.3-9.8-2.7-21.1-5.2-11.3-2.6-33.8-7.6-50-11.3-16.2-3.6-29.7-6.8-30-7-0.3-0.3 0.6-1.3 1.9-2.4 2-1.6 4-1.9 27.6-1.9zm-196.1 35.1c0.6-0.1 0.6 0.2 0 0.7-0.5 0.5-22.5 14.4-48.9 30.9-26.4 16.6-55.5 34.8-64.8 40.7-9.2 5.8-17 10.6-17.5 10.6-0.4 0 1.5-2.3 4.3-5.1 2.7-2.8 13.7-13.2 24.2-23 14.7-13.6 20.8-18.6 25.5-20.9 3.5-1.6 6.9-3 7.5-3 0.7 0 8.4-3.2 17-7.1 8.7-4 23.9-10.9 33.8-15.5 9.9-4.5 18.4-8.3 18.9-8.3zm176.1 68.9l-5 4.5c-3.3 2.9-4.6 4.7-3.8 5.2 0.6 0.5 5.9 3.5 22.3 12.8l-7.7 3.7c-4.3 2-7.4 3.7-6.8 3.7 0.6 0.1 8.4 1.1 17.5 2.2 9.1 1.2 16.7 2.3 17 2.5 0.3 0.3-2.6 3.6-6.5 7.4-4.4 4.4-6.6 7.3-6 7.8 0.6 0.5 5.3 2.4 10.5 4.1 5.2 1.8 10.1 3.6 10.7 3.9 0.7 0.4-4.4 3.1-11.5 6.1-7 3-13.1 5.9-13.7 6.4-0.6 0.5 1.3 0.6 4.5 0.2 3-0.3 7-0.8 12-1.5l0.6 10.7c0.3 6 0.9 13.8 1.9 24.3l10.2-16.2c5.6-9 10.8-17.1 11.5-18.1 1.2-1.6 2-1.5 13.1 2.5 6.5 2.4 11.7 4.7 11.7 5.3 0 0.6-0.9 4.3-2 8.2-1.1 4-2 8-2 8.8 0 1.1 3.1 0 11.7-4 6.5-3.1 11.9-5.4 12-5.3 0.1 0.2 0.9 3.7 1.8 7.8 0.9 4.1 1.7 7.6 1.8 7.7 0.1 0.2 3-6.1 12.5-28.2l5.1 17 15.3 1.3c8.4 0.6 15.4 1.3 15.6 1.5 0.1 0.1-1.8 4.5-4.3 9.7-2.4 5.2-4.5 9.8-4.5 10.2 0 0.5 4.5 2.1 10 3.8 8.9 2.7 9.9 3.2 8.7 4.6-0.6 0.9-4.7 4.6-9 8.3-4.2 3.6-7.6 6.7-7.5 6.8 0.2 0.1 5.4-1.6 22.8-7.7v6.7c0 3.8 0.2 6.6 0.5 6.3 0.3-0.3 1.3-5.8 4-24.2l13-4.7c7.1-2.5 14.8-5.2 21-7.2l3.3-23.7c1.9-13 3.7-25 4-26.5 0.5-1.9 1.9 4.2 4.5 20 3.6 22.2 3.7 22.9 1.9 24.8-1 1.1-7 7.8-13.3 14.8-6.3 7-11.2 13-10.9 13.2 0.3 0.3 6.1-1.5 13-3.9 6.9-2.5 12.6-4.3 12.7-4 0.2 0.2-2.9 2.5-6.8 5.1-6.9 4.7-7.1 4.9-6.6 8.3 0.3 1.9 1.8 15 3.3 29 1.5 14 3 25.8 3.3 26.2 0.3 0.4 7.2-14 15.3-32 8.2-18 14.8-32.9 14.8-33.2 0.1-0.3-4-4.6-18.2-18.5l3.4-21.8c1.8-11.9 3.6-21.6 3.9-21.5 0.4 0.2 8.9 10.8 37.4 46.7l24.5-36.9 5.8 7.2c3.2 4 7 8.9 8.5 10.8 2.2 2.9 3.1 6.1 5.2 18 1.4 8 5 34.7 13.2 104.5l-3.8 50c-2.8 36.8-4.5 53.6-6.4 63.5-2.2 11.8-2.9 13.9-8.4 19.5l-0.5-2.5c-0.3-1.4-2.6-23-5.1-48-2.6-25-4.9-46.1-5.1-46.8-0.2-0.7-2.4 0.5-5.7 3.3-2.8 2.6-5.5 4.5-5.8 4.3-0.4-0.2-4.3-4.7-8.8-10.1-4.5-5.3-8.6-9.5-9.1-9.2-0.5 0.3-1 1.4-1 2.5 0 1.1-0.5 4.4-2.3 12.5l-8.4-17-5.4 8.2c-3 4.6-5.7 8.3-6.2 8.3-0.4 0-2.7-2.9-5.2-6.5-2.5-3.6-4.7-6.5-5-6.5-0.3 0-4.5 5.2-18.5 23l-4.1 28.5 4.8 5c2.6 2.7 9.2 9.5 24.4 25l5.5 58.5c3 32.2 5.5 58.6 5.7 58.7 0.1 0.1 3.9-12.3 8.5-27.5 4.5-15.3 8.2-28.2 8.2-28.7 0-0.6-1.8 2.3-4 6.2-2.2 4-4.2 7.2-4.5 7-0.3-0.1 0.6-4.9 2-10.7 1.4-5.8 2.8-11.2 3.1-12 0.4-1 1.1-0.4 2.5 2.2 1 2.1 2.2 3.8 2.7 3.8 0.4 0 3.6-1.6 7.2-3.6 3.6-2 6.2-3 5.9-2.2-0.3 0.7-6.6 19.1-13.9 40.8-7.3 21.7-13.6 39.9-13.9 40.3-0.3 0.4-5.9-11.3-12.3-26-7.5-17.1-12.2-26.7-13-26.5-0.7 0.2-16.6 6.4-35.3 13.7-18.7 7.4-34.7 13.6-35.5 13.9-0.8 0.3-7.8 8.7-15.5 18.6-8.7 11.3-14.2 17.6-14.6 16.8-0.3-0.7-1.5-5.3-2.5-10.2-1-4.8-2.4-9.2-2.9-9.6-0.5-0.4-7.3-1.5-29-4.3l44-15.4c24.2-8.5 53.9-18.9 88-31l1.6-20.4c0.9-11.2 1.4-20.9 1.1-21.4-0.3-0.6-9.2-12.3-38.9-51l-1.1-41c-0.7-22.6-1.2-43.3-1.2-46 0-2.8-0.2-4.8-0.5-4.5-0.2 0.3-4.1 18.9-8.5 41.5-4.4 22.5-8.1 41.3-8.3 41.8-0.1 0.4-6.7-22.6-14.6-51-7.9-28.5-14.6-52.4-15-53.1-0.4-0.9-6.1 6.1-15.6 18.8-8.3 11-15.1 19.7-15.3 19.3-0.2-0.4 0.8-7.3 2.2-15.3 1.4-8 2.6-14.9 2.6-15.5 0-0.6-4.2 5.7-18.8 29l-9.4 2.8c-5.1 1.6-9.6 2.7-10 2.5-0.4-0.2 2.4-3.6 6.3-7.6 3.8-3.9 6.8-7.4 6.6-7.7-0.1-0.3-7.4 2.9-16.2 7.1-8.8 4.2-20.2 9.6-25.3 12-5 2.4-10 4.4-11 4.4-0.9 0-10-1.8-20.2-3.9-10.2-2.2-26.1-5.6-52.5-11.2l-23 6.5c-12.6 3.5-34.5 9.7-74 20.9l-51-2.7c-28.1-1.5-58.2-3.1-67-3.6-8.8-0.5-16.3-0.6-16.6-0.2-0.4 0.4-1.6 5-2.8 10.2-1.1 5.2-2.1 9.8-2.1 10.2 0 0.5 4.3 5.6 9.6 11.5 5.3 6 14.2 15.9 29.9 33.6l-3.5 3.1c-2 1.7-6.3 5.6-16 14.1l4.9 7.5c2.7 4.1 12.2 16.5 37.6 47.4l34.5 9.1c19 5 35.3 9.4 36.3 9.8 0.9 0.4 7.3 8 26.5 33.2l7 20c3.9 11 7.3 20.7 7.7 21.5 0.4 1.1-1.1 2.2-13.5 7l0.6 5.7c0.3 3.2 2.3 27.2 4.4 53.3 2 26.1 3.4 48 3 48.5-0.4 0.5-4.4 8-17 32l47.5 32.4 30-9.9c16.5-5.4 30.1-9.7 30.3-9.4 0.1 0.2-4.9 7-11.1 15.1-6.3 8.2-20.9 27.2-32.6 42.3-11.6 15.1-21 27.6-20.9 27.8 0.2 0.1 16.9 1.9 74 7.7l6.9-8.3c3.8-4.5 7.2-8.2 7.7-8.2 0.4 0 8.9 8.2 37.2 36.5l-30.3 0.7c-16.6 0.4-42.3 0.7-57.2 0.8-14.9 0.1-27.1 0.3-27.3 0.6-0.1 0.2 2.3 5.4 10.8 22.4l44.5 8.3-10.5 9.8c-5.8 5.4-11.4 10.2-12.5 10.8-1.1 0.6-27.7 4.1-59.1 7.8-31.5 3.8-57.6 7.2-58 7.6-0.5 0.4 2 9.9 5.5 21 3.4 11.1 6.6 20.5 7 20.9 0.3 0.4 14.1 2.1 30.6 3.8 16.5 1.7 42.8 4.4 58.5 6 15.7 1.6 32 3.3 36.2 3.7 4.2 0.4 7.4 1 7.1 1.3-0.2 0.3-8.7 3.7-36.8 14.7l-52.2-6.6c-49.4-6.2-52.3-6.7-53.8-8.9-0.8-1.2-6.6-5-12.8-8.4-8.5-4.7-13.2-8.1-19.5-14.2-4.5-4.5-9-9.7-9.9-11.6-0.9-1.9-13.9-26.3-56.3-105l-23.8-98.5 1.1-15.2c0.7-8.3 1.6-15.6 2.2-16.1 0.6-0.5 7.5-4.8 15.5-9.7 8-4.8 14.6-8.8 14.8-8.9 0.1 0-4.8-2.4-11-5.3-6.2-2.8-22.6-10.1-36.3-16.2-13.8-6.2-25-11-25.1-10.9-0.1 0.2-0.8 23.5-1.8 51.8-0.9 28.3-1.6 52.9-1.6 54.5 0 1.6-0.1 2.8-0.4 2.5-0.2-0.3-3.2-20.8-6.6-45.5-5.3-38.1-6.6-46-9-51.5-1.5-3.6-6.1-17.3-10.3-30.5-4.7-15-8.1-27.9-9.1-34.5-1.2-7.5-5.6-23-29.6-99l3.4-6.8c3.1-6 3.5-6.4 4-4.2 0.4 1.4 2.9 14.9 5.7 30 2.7 15.1 5.1 27.6 5.2 27.7 0.1 0.1 3.5-10.9 7.6-24.5 4.1-13.6 7.5-25.1 7.5-25.6 0.1-0.5-5.3-3.3-11.9-6.2-6.6-3-12.5-5.5-13-5.7-0.6-0.2 3-8.6 8-18.7 4.9-10 8.9-19 8.8-19.9-0.1-0.9-11.9-41.9-26.3-91.1-25.4-87.4-26-89.6-25.3-95.5 0.7-5.2 3.8-11.7 23.8-49.3 12.6-23.9 23.1-43 23.3-42.5 0.1 0.4-9.3 22.4-20.9 48.8-11.6 26.4-21.1 48.9-21.1 50 0 1.1 7.5 29.2 16.7 62.5 9.1 33.3 19.2 69.8 22.3 81.2 3.1 11.4 6 20.4 6.4 20 0.4-0.4 8.8-20.3 18.8-44.2 10-23.9 18.7-44.6 19.3-45.9 0.9-1.7 4.2-3.6 12.2-6.8 6-2.4 17.5-7.1 40-16.1l50 8.8c27.5 4.8 50.1 8.7 50.2 8.7 0.1-0.1 1.3-4.3 2.7-9.2 1.7-6.4 5.1-14.1 12-27 5.2-9.9 9.3-18.3 9.1-18.8-0.3-0.4-2.6-1.2-5.3-1.8-3.4-0.8-4.3-1.4-3.2-2 0.8-0.5 5.3-0.9 10-0.9 5.3 0 9.2-0.4 10.2-1.2 1-0.7 6.2-11.9 11.7-24.8 5.5-12.9 10-22.8 10.1-22 0 0.8-2 10.7-4.4 22-2.5 11.3-4.4 20.6-4.3 20.7 0.1 0.1 9.2-8.6 20.2-19.2 11-10.7 20.3-19.4 20.7-19.5 0.5 0 0.8 4.3 0.8 9.5 0 7.1 0.3 9.4 1.2 9.1 0.7-0.2 3.8-1 12.3-3.5l9-16.1c4.9-8.8 9.1-15.9 9.3-15.8 0.1 0.2-0.9 7.3-2.3 15.8-1.4 8.5-2.4 15.8-2.3 16.1 0.2 0.4 8.2-3.8 17.8-9.2 9.6-5.4 17.6-10.4 17.8-11.1 0.1-0.7-2.5-12.6-5.8-26.3-3.3-13.8-6.1-25.1-6.3-25.2-0.1-0.2-3.8 2.3-8.2 5.4-4.4 3.1-15.1 10.9-23.8 17.2-8.7 6.4-16 11.4-16.2 11.1-0.2-0.3 9-8.8 20.5-19 11.5-10.2 20.7-18.6 20.5-18.8-0.3-0.1-6.2 2.7-13.3 6.3-7 3.5-13 6.5-13.5 6.5-0.4 0 1.5-2.6 4.1-5.8 2.6-3.1 9.6-11.7 15.5-19 5.9-7.2 10.6-13.4 10.4-13.7-0.1-0.3-6.8 0.7-15 2.2-8.1 1.5-15 2.4-15.5 2-0.4-0.4-1.4 0-2.2 0.9-1.4 1.6-1.3 1.7 0.2 1.1 1.5-0.6 1.9 0 2.3 3 0.3 2.1 0.5 7.3 0.5 19.3l-8.8 2.6c-4.8 1.4-9.5 2.7-10.5 3-0.9 0.2-1.6 0-1.5-0.4 0.2-0.5 4.6-9.1 9.8-19.1 8.8-16.9 9.5-18.1 10.5-11.7l10.8-9.9c5.9-5.5 10.4-10.1 10-10.3-0.4-0.1-4.2 0.6-8.3 1.7-4.1 1.1-7.6 1.9-7.8 1.8-0.1-0.1 2.8-6 13.3-26.2l12.5-1.1c6.9-0.6 14.3-1.2 20.5-1.4zm310 346c0.5 0-3.3 4.3-8.5 9.5-5.2 5.2-9.6 9.2-9.8 9-0.1-0.3 0.5-1.9 1.3-3.5 0.8-1.6 1.4-3 1.2-3-0.1 0-3.6 1.3-7.7 3-4.1 1.6-7.6 2.9-7.8 2.7-0.1-0.1 6.6-4.1 15-8.9 8.4-4.8 15.7-8.7 16.3-8.8zm-182 460c0.5 0-4.6 5.6-24 24.8l-44 17.1c-24.2 9.4-44.5 17.1-45 17.1-0.6-0.1 5.7-3.6 14-7.8 8.2-4.3 29.6-15.4 47.5-24.7 17.9-9.2 36.5-19 41.5-21.7 5-2.6 9.4-4.8 10-4.8z"/>
		<path id="Path 3" class="s0" d="m437.7 272.6c0.2 0.2-3.1 7.9-14.7 33.9l-19.2 7.8c-10.6 4.2-19.4 7.6-19.6 7.5-0.1-0.2 11.8-11.4 26.4-24.9 14.7-13.6 26.9-24.5 27.1-24.3zm12.9 1.4c0.2 0 9 6.9 19.4 15.2 10.5 8.4 19.1 15.5 19.1 15.8-0.1 0.3-7.4 5.8-32.6 23.9l-8.5-2.3c-4.7-1.3-13.7-3.8-20-5.6-6.3-1.8-11.7-3.4-12-3.6-0.3-0.2 7.3-10 16.8-21.9 9.6-11.8 17.6-21.5 17.8-21.5zm-263.1 275c1.3 0 3.4 1.6 5.8 4.5 2 2.5 3.6 4.7 3.5 4.9-0.2 0.2-9.1-0.4-39.3-2.7l14-3.3c7.7-1.8 14.9-3.3 16-3.4zm-91.1 16c0.3 0.3 5.5 19.2 11.6 42 6.1 22.8 11 41.6 10.8 41.7-0.2 0.1-5.4-4.5-22.8-20.7v-31.8c0-17.4 0.2-31.5 0.4-31.2z"/>
		<path id="Path 4" class="s1" d="m418.3 190c0.7 0 3.4 2.3 11.2 10l-7.2 7.3c-4 3.9-7.6 6.8-8 6.4-0.4-0.4-0.2-4.9 0.5-10 0.8-5.1 1.6-10.2 1.9-11.4 0.3-1.3 1-2.3 1.6-2.3zm256.3 30.3c0.1 0.1 1 9 1.8 19.7 0.9 10.7 1.6 20.3 1.6 21.3 0 1-2.2 3-5.8 5.1-3.1 1.9-5.9 3.2-6.2 2.9-0.3-0.3-1.7-8.2-5.7-34.8l7-7.2c3.9-4 7.1-7.2 7.3-7zm-522.1 268.7c0.3 0 13 4 28.3 8.9 15.2 4.9 38.5 12.4 51.7 16.6 13.2 4.2 25.4 8 27 8.5 2.7 0.9 4.4 3.7 30.8 55.5l-4.8 49c-2.6 27-4.9 49.1-5.1 49.3-0.2 0.1-5.7-1.9-12.2-4.5-6.4-2.5-12-4.9-12.5-5.2-0.4-0.3 2.9-10.3 7.3-22.1 4.4-11.8 7.9-21.6 7.7-21.7-0.1-0.1-5 5.1-11 11.7-5.9 6.6-11.1 12-11.7 12-0.6 0-7.4-8.3-15.3-18.5-7.8-10.2-14.3-18.9-14.4-19.3-0.1-0.4 5.1-4.5 11.7-9.2 6.5-4.7 11.5-8.8 11.2-9.1-0.4-0.4-8.1-3.7-17.2-7.4-9.1-3.7-18.5-7.6-21-8.6-2.5-1.1-5-1.9-5.6-1.9-0.6 0-8.5 7.4-17.5 16.5-9 9.1-16.8 16.5-17.4 16.5-0.6 0-12.3-5.9-26-13.1-13.8-7.2-25.3-13.4-25.7-13.8-0.4-0.3 0.5-7.1 4.7-29.6l24.5-5.2c13.5-2.8 24.9-5.1 25.4-5 0.5 0.1-2.8 1.8-7.2 3.7-5.6 2.4-7.6 3.7-6.4 4.1 0.9 0.4 5.8 1.2 10.7 1.9 4.9 0.6 9.7 1.4 10.5 1.6 0.8 0.2 1.3 0.6 1 0.9-0.3 0.3-4.1 1.3-16.5 4.1l19.5 1.6c10.7 0.8 19.7 1.4 20 1.2 0.3-0.3-0.1-1-0.8-1.7-0.7-0.6-1.2-1.7-1.2-2.2 0-0.6 1.5-0.7 4.2-0.2 2.4 0.5 8.6 1.5 13.8 2.3 5.2 0.8 12.7 1.9 16.5 2.4 3.8 0.6 8.1 1.2 9.5 1.5 1.9 0.4 4.8 4.1 13 17 5.8 9 10.6 16.1 10.7 15.7 0.1-0.4-1.9-8.7-9.2-36.4l-45-23.6-35-9.2c-19.3-5-35.4-9.2-35.9-9.3-0.5-0.1-4 5.4-7.7 12.3-6.2 11.5-7 12.6-10.1 13.2-1.8 0.3-9.3 0.9-16.6 1.2-12.1 0.6-13.2 0.5-13.2-1.1 0.1-1 1.2-6.8 2.5-12.8 1.4-6 2.8-11.2 3.1-11.5 0.3-0.3 2.5-0.8 4.8-1.1 2.2-0.3 14.8-2.6 51.6-9.4v-8.2c0-4.6 0.2-8.3 0.5-8.3zm266.5 13.1c0.8 0 6.8 2.8 13.3 6.2 6.4 3.4 11.7 6.4 11.7 6.7 0 0.3-12.5 6-55.5 25.1l0.7-4.3c0.4-2.4 0.9-5.5 1.8-9.8l-30.8-0.5 28.6-11.7c15.8-6.4 29.4-11.7 30.2-11.7zm-0.5 39.9c1.1 0 4.2 0.7 7 1.5 2.7 0.8 5.7 1.8 6.5 2.1 0.9 0.3-1.7 2.1-6.8 4.7-4.6 2.3-8.4 4.7-8.3 5.2 0 0.5 1.5 1.3 3.3 1.7 1.8 0.4 10.7 2.1 19.8 3.9 9.1 1.7 16.6 3.3 16.7 3.5 0.2 0.2-3.3 5.6-7.7 11.9-6 8.6-8.4 11.4-9.8 11-0.9-0.2-12.3-1.1-25.2-2-12.9-0.8-24.9-1.8-26.5-2-2.4-0.5-4.1-2.2-14.5-17.5l18.7-10.1c10.4-5.6 20.2-11 21.8-12 1.6-1 3.9-1.9 5-1.9zm-155.8 131.5c0.2 0.3-6.4 13-14.5 28.3-8.2 15.2-14.8 27.8-14.8 28 0.1 0.1 3.5-1.3 7.6-3.1 4.1-1.9 8.4-3.7 9.5-4.1 1.7-0.6 3.7 1.6 13.2 14.1 6.2 8.1 12.1 15.8 13 16.9 1.3 1.5 7 3.7 19.3 7.3 9.6 2.9 21.2 6.3 34 10.1l-0.6 9.8c-0.4 5.3-0.9 12.7-1.9 23.2l-9-8.5c-4.9-4.7-9.2-8.5-9.5-8.5-0.3 0-6.8 7.6-14.5 17-7.7 9.4-14.1 17.4-14.2 17.8-0.2 0.4 12.4 5 56.2 19.7l30-0.6c16.5-0.4 38.1-0.9 48-1.2 9.9-0.3 17.6-0.4 17-0.2-0.6 0.2-17.9 2.9-38.5 6-20.6 3-45.1 6.7-54.5 8.1-9.4 1.3-21.1 3.1-26 3.9-4.9 0.7-11.2 1.6-14 2-3.9 0.4-13.5-1.1-44-7-21.4-4.2-46.2-9-55-10.7-8.8-1.6-16.3-3.3-16.7-3.6-0.4-0.4 14-2.9 32-5.5 18-2.7 35.6-5.3 45.7-7l-17.6-8.2-10.4-31.5c-5.8-17.3-10.5-32.4-10.5-33.5 0-1.1 3.5-14.4 15.7-57l12.3-11.2c6.8-6.2 12.5-11 12.7-10.8zm-18.8 196.5c1.1 0 15.3 2.5 31.4 5.5 16 3 32.6 6.2 36.7 7 4.1 0.8 16.3 3 27 5 10.7 1.9 20.6 3.8 22 4.1 1.6 0.4-13.1 3.2-38.5 7.5-22.6 3.7-42.6 6.9-44.6 7.1-3.5 0.3-4-0.2-17-14.6-7.4-8.2-14.7-16.4-16.3-18.3-2.7-3.1-2.8-3.3-0.7-3.3z"/>
		<path id="Path 5" class="s2" d="m412 40.8c0.4 0.9 1 4.3 2 13.2l-7.3-2c-3.9-1.1-7.9-2.3-8.7-2.6-1-0.3 1.1-2.2 5.9-5.4 6.5-4.3 7.6-4.7 8.1-3.2zm-59.3 22.3c0.7-0.1 4.3 1.8 14.8 8.4l-8.5 0.7c-4.7 0.3-13.3 0.8-19.1 1.1-5.8 0.3-10.6 0.3-10.5 0.2 0.1-0.2 5-2.6 11.1-5.4 6.1-2.7 11.6-5 12.2-5zm-62.5 6.5c1.8 0.3 6.8 1.1 18.9 2.9l-8.1 4.8c-4.4 2.6-8.3 4.7-8.8 4.7-0.4 0-1.7-2.6-2.9-5.7-1.3-3.2-2.3-6.1-2.4-6.5 0-0.4 1.4-0.4 3.3-0.2zm67 6.7l5.4 3.6c3 2 5.1 3.9 4.7 4.2-0.4 0.3-8.6 3.3-18.1 6.7-9.4 3.4-17.4 6.1-17.7 6-0.3-0.2 5.4-4.9 12.6-10.4zm179.8 59.7c2.7 3 5 6.1 5 6.8 0 0.7-0.3 1.2-0.8 1.2-0.4 0-2.6-2.7-5-6-2.3-3.3-4.2-6.3-4.2-6.7 0.1-0.4 2.3 1.7 5 4.7zm-63.5 4.1c0-0.1 6.1 2.6 13.5 5.9 7.4 3.3 13 6 12.5 6-0.6 0-4.6-0.4-9-0.9-4.4-0.6-12.5-1.5-18-2.1-5.5-0.6-11.4-1.3-13-1.6-2.7-0.6-2.2-0.9 5.5-3.9 4.7-1.8 8.5-3.3 8.5-3.4zm67.9 4.7l2.3 3.6c1.3 2 2.3 3.8 2.3 4.1 0 0.3-2.5 1.5-5.5 2.8-3 1.2-5.7 1.9-6 1.5-0.3-0.4 1.2-3.3 3.2-6.4zm4 10.2c0.6 0 3.2 4.9 5.9 10.8 2.6 5.9 4.7 10.8 4.5 10.8-0.2 0.1-4.8 0.8-10.3 1.7-5.5 0.8-10.1 1.4-10.3 1.4-0.1-0.1 1.9-5.7 4.5-12.4 2.6-6.8 5.2-12.3 5.7-12.3zm-241.3 12.9c0.4 0.3 4.8 6.1 9.8 12.9 5 6.7 9 12.4 8.9 12.6-0.2 0.2-10.4 4.7-22.8 10-12.4 5.2-22.6 9.5-22.6 9.3-0.1-0.1 5.7-10.4 12.9-22.8 7.2-12.5 13.5-22.4 13.8-22zm-48.5 65.6c0.1 0.2-2.1 9.6-5 20.9-2.8 11.2-5.2 20.4-5.3 20.3-0.1-0.1-1.3-4-2.7-8.7-1.4-4.7-2.2-8.9-1.9-9.5 0.4-0.5 3.8-6 7.6-12.2 3.9-6.2 7.2-11.1 7.3-10.8zm493.2 261c4.8 11.9 5.6 14.9 5.5 20 0 3.3-0.5 7-0.9 8.3-0.9 2.2-1 2.2-7.1-2.3-6.1-4.3-6.3-4.6-5.8-8.2 0.3-2.1 0.9-9.5 1.5-16.5 0.6-7 1-13.3 1.1-14 0-0.7 2.6 5 5.7 12.7zm-63 41.5c0.3 0 5 7.2 10.4 16 5.4 8.8 9.6 16.2 9.3 16.5-0.3 0.3-7.1-2.2-15.2-5.6-8.2-3.4-15.1-6.3-15.5-6.5-0.5-0.2 0.8-3.4 2.8-7.1 2-3.7 4.5-8.2 5.6-10 1.1-1.8 2.2-3.3 2.6-3.3z"/>
		<path id="Path 6" class="s0" d="m256.1 596h4c3.4 0 3.9 0.3 4.1 2.5 0.2 1.8-0.2 2.5-1.5 2.5-0.9 0-2.3 0.3-3 0.6-0.7 0.3-1.7-0.7-2.4-2.5z"/>
	</g>
</svg>